/* XPM */
static char *_245216da3c546579d024f64ce13a8fd1Mn23ncEMZ1T3Bm8[] = {
/* columns rows colors chars-per-pixel */
"67 54 140 2 ",
"   c None",
".  c #5C4E92",
"X  c #796295",
"o  c #7A6596",
"O  c #7A6796",
"+  c #756B97",
"@  c #74699D",
"#  c #766B9E",
"$  c #7C6D99",
"%  c #7C7298",
"&  c #7C7398",
"*  c #7C7299",
"=  c #7C7499",
"-  c #766DAA",
";  c #7D72A1",
":  c #7B72AB",
">  c #857E9B",
",  c #877DA5",
"<  c #847DAC",
"1  c #8D869F",
"2  c #8F899D",
"3  c #8C84A4",
"4  c #8C82A9",
"5  c #8F85AB",
"6  c #8E88AD",
"7  c #928CA7",
"8  c #9D8AA3",
"9  c #9389AD",
"0  c #9890A1",
"q  c #9F9AA6",
"w  c #9A90B1",
"e  c #9C93B3",
"r  c #9E95B4",
"t  c #A591A6",
"y  c #A693A6",
"u  c #A49FA3",
"i  c #A49EA9",
"p  c #A19AAD",
"a  c #A898A9",
"s  c #AB9FAC",
"d  c #A097B5",
"f  c #A8A3A4",
"g  c #A8A4A5",
"h  c #AEA7A4",
"j  c #AEAAA6",
"k  c #B0ACA7",
"l  c #B3AFA8",
"z  c #B7B3AE",
"x  c #AAA5B1",
"c  c #ADA5B8",
"v  c #ACA4BA",
"b  c #ABA2BC",
"n  c #B0ACB2",
"m  c #B4AEB6",
"M  c #B9B4B1",
"N  c #C7BF91",
"B  c #C49AA3",
"V  c #C6A3A6",
"C  c #C6A8A7",
"Z  c #CDB7B4",
"A  c #E0AFAA",
"S  c #E8B5AC",
"D  c #E1BAAD",
"F  c #EBE280",
"G  c #EAE494",
"H  c #EDE795",
"J  c #E5E099",
"K  c #C6C4AF",
"L  c #CCC5AF",
"P  c #C7C5B7",
"I  c #CAC7B0",
"U  c #CDC6B2",
"Y  c #CBC8B0",
"T  c #CDC9B1",
"R  c #CDCAB1",
"E  c #CFCDB2",
"W  c #D0CEB2",
"Q  c #D7D5B5",
"!  c #D9D7B6",
"~  c #DAD8B6",
"^  c #DFDDB8",
"/  c #DFDDBB",
"(  c #E2C0AF",
")  c #EAC1AF",
"_  c #EAC4B0",
"`  c #EBC7B1",
"'  c #ECCDB3",
"]  c #EDD1B5",
"[  c #EDD5B6",
"{  c #E0DEB9",
"}  c #EEDAB8",
"|  c #EFDDB9",
" . c #EEEAA1",
".. c #EFEBA6",
"X. c #F0EDAF",
"o. c #E1E0BA",
"O. c #E6E4BA",
"+. c #E1E0BC",
"@. c #E6E4BE",
"#. c #E9E3BA",
"$. c #EAE4BD",
"%. c #EAE7BC",
"&. c #EAE9BC",
"*. c #EAE8BE",
"=. c #ECEABD",
"-. c #ECEBBD",
";. c #EEEDBE",
":. c #EFEEBE",
">. c #EFEEBF",
",. c #F2EBBE",
"<. c #F2EDBE",
"1. c #F2EFBF",
"2. c #F3F1BE",
"3. c #F3F0BF",
"4. c #B2A9C0",
"5. c #BBB3C7",
"6. c #C2BCC0",
"7. c #D5CDD8",
"8. c #DAD3D8",
"9. c #DDD5DE",
"0. c #DFD8DC",
"q. c #EAD2C1",
"w. c #F3DAC5",
"e. c #F3DFC4",
"r. c #E2DCD8",
"t. c #E4E1C0",
"y. c #EEECC6",
"u. c #EFEDC7",
"i. c #E9E5CF",
"p. c #EDEBC9",
"a. c #EDEACA",
"s. c #F3E6C2",
"d. c #F3ECC1",
"f. c #F3EEC1",
"g. c #F3EFC1",
"h. c #F0EDC5",
"j. c #F3F1C0",
"k. c #F3F2C0",
"l. c #E6E1D3",
"z. c #E7E2D2",
/* pixels */
"                                                                                                                                      ",
"                                                                                                                                      ",
"                                                                                                                                      ",
"                                                                                                                                      ",
"                                                                                                                                      ",
"                                                                                                                                      ",
"                                                                                                                                      ",
"                                                                                                                                      ",
"                                                                                                                                      ",
"                                                                                                                                      ",
"                                                                                                                                      ",
"                                                                                                                                      ",
"                                                                                                                                      ",
"                                                                                                                                      ",
"                                                                                                                                      ",
"                                                                                                                                      ",
"                                                                                                                                      ",
"                                                                                                                                      ",
"                                                                                                                                      ",
"                                                                                                                                      ",
"                                              . . .           . . . .                                                                 ",
"                                            u k k k >         f k k j                                                                 ",
"                                          . L ,.<.k.2       . Q <.,.#.%                                                               ",
"                                          . V ) ' k.2 . . . . Q } ) D o                                                               ",
"                                          . B S ` k.6.4.4.4.4.t.[ S A X                                                               ",
"                                          . C ` ] k.r.9.9.9.9.p.| ` ( o                                                               ",
"                                          . R 3.k.k.r.9.9.9.9.p.k.3.%.%                                                               ",
"                                          . R k.k.k.r.9.9.9.9.p.k.k.&.=                                                               ",
"                                          . R k.k.k.i.l.l.l.l.h.k.k.&.= .                                                             ",
"                                        . . R :.=.k.k.k.k.k.k.k.:.=.&.= .                                                             ",
"                                          . R E g k.k.k.k.k.k.k.K l &.=                                                               ",
"                                        . . R ^ Y k.k.k.k.k.k.k.~ W &.= .                                                             ",
"                                        . . U g.g.k.k.k.k.k.k.k.g.g.%.% .                                                             ",
"                                          . Z w.e.k.k.k.k.k.k.k.s.w.q.$                                                               ",
"                                            8 y a n n n n n n n s y y                                                                 ",
"                                            9 p q - - 0 h x : - 7 i w                                                                 ",
"                                          . 5.l.+.< < N H O.6 < P p.7.@                                                               ",
"                                          . 5.l.:.^ ^ J F G { ^ &.p.7.@                                                               ",
"                                            d m I k.k.X. ...3.k.! M b @                                                               ",
"                                            . . 1 u.u.@.^ o.u.u.z . .                                                                 ",
"                                                , 0.0.v + 3 8.0.v .                                                                   ",
"                                                ; r r 4     e r 5                                                                     ",
"                                                  . .       . .                                                                       ",
"                                                                                                                                      ",
"                                                                                                                                      ",
"                                                                                                                                      ",
"                                                                                                                                      ",
"                                                                                                                                      ",
"                                                                                                                                      ",
"                                                                                                                                      ",
"                                                                                                                                      ",
"                                                                                                                                      ",
"                                                                                                                                      ",
"                                                                                                                                      "
};
