/* XPM */
static char *bba2a4e861434352bf77b164595a4196Ulyc1ycBGtHk5wgx[] = {
/* columns rows colors chars-per-pixel */
"64 64 194 2 ",
"   c None",
".  c #5C4E92",
"X  c #5C4F92",
"o  c #5D4F92",
"O  c #615493",
"+  c #645793",
"@  c #665B94",
"#  c #675B95",
"$  c #695B96",
"%  c #685D94",
"&  c #685C97",
"*  c #695D97",
"=  c #695D98",
"-  c #6E6397",
";  c #7D6696",
":  c #766D97",
">  c #776E97",
",  c #70659A",
"<  c #70649B",
"1  c #71669B",
"2  c #736999",
"3  c #7A6C99",
"4  c #7E6E98",
"5  c #7B7198",
"6  c #7B7298",
"7  c #7D7599",
"8  c #7E7499",
"9  c #7D74A0",
"0  c #876D98",
"q  c #89779A",
"w  c #807899",
"e  c #867D9B",
"r  c #877E9B",
"t  c #877F9B",
"y  c #89789A",
"u  c #88799C",
"i  c #8F7D9F",
"p  c #8075A3",
"a  c #8177A3",
"s  c #8D7DA1",
"d  c #867FAA",
"f  c #87809B",
"g  c #88819C",
"h  c #89829C",
"j  c #8A839C",
"k  c #8B839C",
"l  c #90899F",
"z  c #948E9F",
"x  c #BAB29A",
"c  c #8D84A9",
"v  c #9381A0",
"b  c #988BA6",
"n  c #918AA9",
"m  c #958CAD",
"M  c #978FAE",
"N  c #9A95A1",
"B  c #9D97A1",
"V  c #9C97A2",
"C  c #9791AD",
"Z  c #9991AD",
"A  c #9892AE",
"S  c #9F98AB",
"D  c #9E98AE",
"F  c #A293A7",
"G  c #A398A9",
"H  c #A099AE",
"J  c #A09BAF",
"K  c #A19DB0",
"L  c #A39BB5",
"P  c #AAA6A5",
"I  c #A8A3AD",
"U  c #ADA9AE",
"Y  c #B4AEA8",
"T  c #BFAEAF",
"R  c #B6B2A8",
"E  c #B8B4AA",
"W  c #BAB4AA",
"Q  c #BCB9AB",
"!  c #AAA6B1",
"~  c #ADA7B0",
"^  c #AAA1BA",
"/  c #ABA3BB",
"(  c #AEA5BE",
")  c #B1A9BD",
"_  c #BCB6BE",
"`  c #C29BA3",
"'  c #CCA2A6",
"]  c #C5AFA9",
"[  c #C6AFA9",
"{  c #CFB7AB",
"}  c #C1BDAD",
"|  c #D0B8AC",
" . c #C0BDB3",
".. c #CCB9B3",
"X. c #C2BCBE",
"o. c #E6B7AD",
"O. c #E8B9AD",
"+. c #E2DC9A",
"@. c #EBE48E",
"#. c #C4C0AF",
"$. c #C5C2AF",
"%. c #C6C4AF",
"&. c #C7C4AF",
"*. c #C9C4AF",
"=. c #C8C6AF",
"-. c #D2CDA0",
";. c #C7C3B7",
":. c #CAC3B1",
">. c #C9C6B0",
",. c #CAC6B0",
"<. c #CAC8B0",
"1. c #CDCBB1",
"2. c #CECBB1",
"3. c #CFCCB2",
"4. c #CECCB5",
"5. c #CFCDB7",
"6. c #C6C1BD",
"7. c #CAC6B9",
"8. c #C8C4BC",
"9. c #D3CDB4",
"0. c #D2D0B3",
"q. c #D4D0B3",
"w. c #D5D2B4",
"e. c #D7D3B5",
"r. c #D6D3B6",
"t. c #D7D4B4",
"y. c #DFD9B7",
"u. c #D8D6BA",
"i. c #ECCDB3",
"p. c #E2CFBD",
"a. c #E9D0B4",
"s. c #EBD1B5",
"d. c #ECD2B5",
"f. c #ECD3B5",
"g. c #E4D0BD",
"h. c #E5D7BD",
"j. c #E1DFBB",
"k. c #E2DBBD",
"l. c #E5D9BD",
"z. c #E6DEBD",
"x. c #EDDCB8",
"c. c #EFDDB9",
"v. c #EDDEB9",
"b. c #E6E1A2",
"n. c #EBE7A8",
"m. c #ECE9AF",
"M. c #E3E1B7",
"N. c #EEEBB2",
"B. c #E2E1B9",
"V. c #E3E2BA",
"C. c #E4E2BA",
"Z. c #E4E3BA",
"A. c #E6E2BD",
"S. c #E6E3BD",
"D. c #E6E4BD",
"F. c #EFE0BA",
"G. c #EAE4BD",
"H. c #EAE6BD",
"J. c #EBE7BD",
"K. c #E9E7BE",
"L. c #EAE9BC",
"P. c #EDECBE",
"I. c #EFEEBF",
"U. c #F0EDBE",
"Y. c #F1EEBF",
"T. c #F0EFBF",
"R. c #F1EFBF",
"E. c #F3F0BF",
"W. c #F2F1BF",
"Q. c #C1B9C6",
"!. c #D8D3C8",
"~. c #DFD9D7",
"^. c #DAD2DC",
"/. c #DBD3DC",
"(. c #DDD5DE",
"). c #E2DECA",
"_. c #E1DCCC",
"`. c #E1DBD5",
"'. c #E3DDD7",
"]. c #E5DFD5",
"[. c #E1DBD9",
"{. c #ECE7C7",
"}. c #EEE8C4",
"|. c #EFEDC6",
" X c #EDEBC8",
".X c #F0EFC0",
"XX c #F0EFC4",
"oX c #F2F0C0",
"OX c #F3F0C0",
"+X c #F3F2C0",
"@X c #F1F0C3",
"#X c #F2F0C2",
"$X c #E7E3D1",
"%X c #E8E4D0",
/* pixels */
"                                                                                                                                ",
"                                                                                                                                ",
"                                                                                                                                ",
"                                                                                                                                ",
"                                                                                                                                ",
"                                                                                                                                ",
"                                                                                                                                ",
"                                                                                                                                ",
"                                                                                                                                ",
"                                                                                                                                ",
"                                                                                                                                ",
"                                                                                                                                ",
"                                                                                                                                ",
"                                                                                                                                ",
"                                                                                                                                ",
"                                                                                                                                ",
"                                                                                                                                ",
"                                                                                                                                ",
"                                                                                                                                ",
"                                                                                                                                ",
"                                                                                                                                ",
"                                                                                                                                ",
"                                                                                                                                ",
"                                                      : : :           : : :                                                     ",
"                                                  8 Y *.,.} z       g Q ,.*.E e                                                 ",
"                                                  4 [ s.x.y.V * = * l r.x.s.{ q                                                 ",
"                                                  ; ` o.i.z.X.( ( ( _ k.d.O.' 0                                                 ",
"                                                  4 [ s.x.}.`./././.~.{.F.d.| y                                                 ",
"                                                  w ,.T.E.|.'.(.(.(.[. X+XT.q.g                                                 ",
"                                                  8 <.T.+XXX%X].].].$X|.+XE.r.g                                                 ",
"                                                . 6 ,.Z.B.I.+X+X+X+X+X.XZ.B.0.e .                                               ",
"                                                  8 &.0.*.L.+X+X+X+X+XI.2.2.3.g                                                 ",
"                                                . 6 :.G.G.T.+X+X+X+X+X+XG.G.9.e .                                               ",
"                                                  3 T p.h.A.D.D.D.D.D.A.l.g...u                                                 ",
"                                                  $ s F G J J I U ! K D b v i                                                   ",
"                                                  1 L 6. .C n x -.$.Z d 9 2 1                                                   ",
"                                                    Z ;.j.u.t.+.@.b.t.5.5.8.) a                                                 ",
"                                                      V $.G.T.N.n.m.M.&.r.).Q.a                                                 ",
"                                                        S !._.7.E R P f N ~ m 1                                                 ",
"                                                        c ^ ^ m - * @ O + @                                                     ",
"                                                            =                                                                   ",
"                                                                                                                                ",
"                                                                                                                                ",
"                                                                                                                                ",
"                                                                                                                                ",
"                                                                                                                                ",
"                                                                                                                                ",
"                                                                                                                                ",
"                                                                                                                                ",
"                                                                                                                                ",
"                                                                                                                                ",
"                                                                                                                                ",
"                                                                                                                                ",
"                                                                                                                                ",
"                                                                                                                                ",
"                                                                                                                                ",
"                                                                                                                                ",
"                                                                                                                                ",
"                                                                                                                                ",
"                                                                                                                                ",
"                                                                                                                                ",
"                                                                                                                                ",
"                                                                                                                                ",
"                                                                                                                                "
};
