/* XPM */
static char *c6e853a94425478a8d5890f6b8b6f599wO9ISGAw8E6e3RPZ[] = {
/* columns rows colors chars-per-pixel */
"64 64 117 2 ",
"   c None",
".  c #5C4E92",
"X  c #5E5094",
"o  c #6B5C95",
"O  c #6A5E98",
"+  c #6C6099",
"@  c #6D6199",
"#  c #6D619A",
"$  c #7A6396",
"%  c #7B6A97",
"&  c #756A9D",
"*  c #7D6F99",
"=  c #7B7398",
"-  c #7C7398",
";  c #7D7599",
":  c #7E7599",
">  c #7369A7",
",  c #766DAA",
"<  c #837BAB",
"1  c #AF8A9F",
"2  c #BCB59E",
"3  c #8D83AA",
"4  c #9A87A2",
"5  c #9B92A0",
"6  c #9E98A1",
"7  c #9B95AA",
"8  c #9F96B5",
"9  c #AA96A7",
"0  c #A29DA3",
"q  c #A49FA3",
"w  c #AF9AA9",
"e  c #AF9CAA",
"r  c #B29BA3",
"t  c #B29CA3",
"y  c #A099B0",
"u  c #A69EB9",
"i  c #A89FBA",
"p  c #AAA6A6",
"a  c #ACA8A6",
"s  c #B6A6AB",
"d  c #B3A8AF",
"f  c #B6B3A9",
"g  c #B6B1AF",
"h  c #BDB9AF",
"j  c #ABA3BC",
"k  c #AEA6BE",
"l  c #B1ADB1",
"z  c #B2AFB3",
"x  c #B5B0B2",
"c  c #B6B3B3",
"v  c #BCB8B1",
"b  c #BCB9B4",
"n  c #C0BCAC",
"m  c #E1B0AA",
"M  c #E8B5AC",
"N  c #E9BAAD",
"B  c #CFC89B",
"V  c #ECE488",
"C  c #ECE68F",
"Z  c #EDE693",
"A  c #C4C1AE",
"S  c #C6C3AF",
"D  c #C7C2BE",
"F  c #D1CFB3",
"G  c #D6D4B4",
"H  c #DAD9B6",
"J  c #DCDBB7",
"K  c #D4D2B9",
"L  c #DFDDB8",
"P  c #DFDCBF",
"I  c #E5C9B2",
"U  c #E6CAB2",
"Y  c #ECCFB4",
"T  c #ECD0B4",
"R  c #EDD1B5",
"E  c #EDD2B5",
"W  c #EED8B7",
"Q  c #ECE8AA",
"!  c #F0ECAC",
"~  c #E2E1B9",
"^  c #E4E3BA",
"/  c #E5E4BB",
"(  c #E6E5BB",
")  c #E7E5BB",
"_  c #E7E6BB",
"`  c #EBE9BD",
"'  c #ECEBBD",
"]  c #EEEDBE",
"[  c #EFEEBE",
"{  c #F0E2BA",
"}  c #F0E3BB",
"|  c #F2EBBD",
" . c #F0EFBF",
".. c #F2EEBE",
"X. c #F2F0BB",
"o. c #F1F0BF",
"O. c #B7AFC4",
"+. c #D6D0CE",
"@. c #CFC7D4",
"#. c #DAD2DC",
"$. c #DDD5DE",
"%. c #ECD9C0",
"&. c #E3DDD7",
"*. c #E5DFD5",
"=. c #E1DADA",
"-. c #E5E3C2",
";. c #EEEDC3",
":. c #EDEAC9",
">. c #ECE9CB",
",. c #F3E1C3",
"<. c #F3E0C4",
"1. c #F3EAC2",
"2. c #F0EEC5",
"3. c #F3F0C0",
"4. c #F2F1C0",
"5. c #F3F2C0",
"6. c #E7E2D2",
/* pixels */
"                                                                                                                                ",
"                                                                                                                                ",
"                                                                                                                                ",
"                                                                                                                                ",
"                                                                                                                                ",
"                                                                                                                                ",
"                                                                                                                                ",
"                                                                                                                                ",
"                                                                                                                                ",
"                                                                                                                                ",
"                                                                                                                                ",
"                                                                                                                                ",
"                                                                                                                                ",
"                                                                                                                                ",
"                                                                                                                                ",
"                                                                                                                                ",
"                                                                                                                                ",
"                                                                                                                                ",
"                                                                                                                                ",
"                                                    . . .           . . . .                                                     ",
"                                                  a G G G 6       . n G G F -                                                   ",
"                                                . t R R ..q . . . . F { R U %                                                   ",
"                                                . 1 M N | D j j j j P W M m $                                                   ",
"                                                . r Y R ..*.$.$.$.$.>.{ Y U %                                                   ",
"                                                . f 4.4.4.*.$.$.$.$.>.4.4.' :                                                   ",
"                                                . f 4.4.4.6.=.=.=.=.>.4.4.' :                                                   ",
"                                              . . f 4.[ 4.4.4.4.4.4.4.o...' : .                                                 ",
"                                                . f H : ) 4.4.4.4.4.4.A 0 ' :                                                   ",
"                                              . . f [ ~ o.4.4.4.4.4.4.` ) ' : .                                                 ",
"                                                . s <.,.4.4.4.4.4.4.4.1.<.%.* .                                                 ",
"                                                  4 w e c c c c c c c d w 9 o                                                   ",
"                                                    . X > , 5 2 b < , 7 g u O                                                   ",
"                                                  3 y p l l B V Q v l K -.O.&                                                   ",
"                                                . i &.o.J ` ! C Z X.4.) A .                                                     ",
"                                                . 8 +.L = A ^ ^ ) ;.2.h .                                                       ",
"                                                . . . . . . . . + @.#.k .                                                       ",
"                                                                  + + +                                                         ",
"                                                                                                                                ",
"                                                                                                                                ",
"                                                                                                                                ",
"                                                                                                                                ",
"                                                                                                                                ",
"                                                                                                                                ",
"                                                                                                                                ",
"                                                                                                                                ",
"                                                                                                                                ",
"                                                                                                                                ",
"                                                                                                                                ",
"                                                                                                                                ",
"                                                                                                                                ",
"                                                                                                                                ",
"                                                                                                                                ",
"                                                                                                                                ",
"                                                                                                                                ",
"                                                                                                                                ",
"                                                                                                                                ",
"                                                                                                                                ",
"                                                                                                                                ",
"                                                                                                                                ",
"                                                                                                                                ",
"                                                                                                                                ",
"                                                                                                                                ",
"                                                                                                                                ",
"                                                                                                                                "
};
