/* XPM */
static char *_4c31907b9714f5ac7ad6604fa19b522pQh4ehxKKysmv54X[] = {
/* columns rows colors chars-per-pixel */
"64 64 147 2 ",
"   c None",
".  c #5C4E92",
"X  c #6E5B94",
"o  c #705C94",
"O  c #6E6195",
"+  c #7B6396",
"@  c #776E97",
"#  c #796F97",
"$  c #7B6E9D",
"%  c #7C71A1",
"&  c #8B6F98",
"*  c #82739D",
"=  c #957699",
"-  c #987E9B",
";  c #A07F9B",
":  c #8177A4",
">  c #857BA5",
",  c #887EA6",
"<  c #92859F",
"1  c #9A879E",
"2  c #928B9E",
"3  c #96909F",
"4  c #BFB89A",
"5  c #8B82A4",
"6  c #8C83A9",
"7  c #9885A2",
"8  c #948BA7",
"9  c #9086AC",
"0  c #928AAC",
"q  c #9891A7",
"w  c #9992AE",
"e  c #9C93B2",
"r  c #A18EA5",
"t  c #B58FA0",
"y  c #A494A3",
"u  c #A894A7",
"i  c #A29DA6",
"p  c #AB9FA7",
"a  c #A49EAE",
"s  c #AE9CAA",
"d  c #BC9CA3",
"f  c #A39CB4",
"g  c #A69EB9",
"h  c #A5A0A4",
"j  c #ABA6A5",
"k  c #AFABA7",
"l  c #A7A0AF",
"z  c #B5A9A7",
"x  c #B1A4AD",
"c  c #B2AEAB",
"v  c #B9A9AC",
"b  c #B6B2AA",
"n  c #BBB6AB",
"m  c #BEBBAC",
"M  c #AFA8B5",
"N  c #AAA2B9",
"B  c #B3ABB1",
"V  c #B6B2B3",
"C  c #B9B6B2",
"Z  c #BAB4BB",
"A  c #BDB8BB",
"S  c #CBA2A5",
"D  c #C0ABA7",
"F  c #C7ABA8",
"G  c #D4ACA9",
"H  c #C3BAAD",
"J  c #CABEAD",
"K  c #DBB4AB",
"L  c #D7BFAE",
"P  c #C7B7B2",
"I  c #C4B9B0",
"U  c #C1BBBA",
"Y  c #E4BFAE",
"T  c #CFC99D",
"R  c #DED798",
"E  c #E8E192",
"W  c #E7E19B",
"Q  c #CEC9A6",
"!  c #C3C1AE",
"~  c #CDC2AF",
"^  c #D8C0AE",
"/  c #D7D3AF",
"(  c #CAC7B7",
")  c #CECBB3",
"_  c #C6C3BB",
"`  c #CFCABB",
"'  c #DEC5B0",
"]  c #D2CDB3",
"[  c #D8CCB7",
"{  c #D8C7B8",
"}  c #D9CAB9",
"|  c #D4D1B4",
" . c #DCD5B6",
".. c #DDDBB7",
"X. c #DAD3BA",
"o. c #DCD9BB",
"O. c #E7C5B1",
"+. c #EBC7B1",
"@. c #E1CDB3",
"#. c #EBC9B2",
"$. c #EDD6B6",
"%. c #EED8B7",
"&. c #EEDDB9",
"*. c #EDE9A5",
"=. c #EBE7AA",
"-. c #E9E7B6",
";. c #E5E3BB",
":. c #E9E6BC",
">. c #ECEABD",
",. c #F1EEB3",
"<. c #F0E2BA",
"1. c #F2ECBE",
"2. c #F3F2BE",
"3. c #B5ACC2",
"4. c #CCC6C3",
"5. c #CFC9CA",
"6. c #D2CEC0",
"7. c #D1CBC9",
"8. c #D5D0C5",
"9. c #DAD5C5",
"0. c #DCD8C4",
"q. c #D6D0CB",
"w. c #DBD7C8",
"e. c #D0C9D5",
"r. c #DDD6DE",
"t. c #E0DDC5",
"y. c #E3DED6",
"u. c #E4E1C3",
"i. c #ECE3C2",
"p. c #EEECC3",
"a. c #E9E6CB",
"s. c #EDEACA",
"d. c #F0E4C1",
"f. c #F2EFC0",
"g. c #F1ECC0",
"h. c #F0EDC5",
"j. c #F1EFC4",
"k. c #F0EEC6",
"l. c #F0E9C0",
"z. c #F3F1C0",
"x. c #F2F1C1",
"c. c #F3F1C1",
"v. c #F3F2C0",
"b. c #F2F1C2",
"n. c #E5E0D4",
"m. c #E6E1D4",
"M. c #E9E4D0",
/* pixels */
"                                                                                                                                ",
"                                                                                                                                ",
"                                                                                                                                ",
"                                                                                                                                ",
"                                                                                                                                ",
"                                                                                                                                ",
"                                                                                                                                ",
"                                                                                                                                ",
"                                                                                                                                ",
"                                                                                                                                ",
"                                                                                                                                ",
"                                                                                                                                ",
"                                                                                                                                ",
"                                                                                                                                ",
"                                                                                                                                ",
"                                                                                                                                ",
"                                                                                                                                ",
"                                                  @ @ @ O                   @ @                                                 ",
"                                                h c b b 3 # .           2 k b b k 2                                             ",
"                                              O z J ] | n i 8 0 0 0 0 q b ) ] ] H 2                                             ",
"                                              O D ' %.1...( Z 3.3.3.3.A ] :.&.$.L 1                                             ",
"                                              X d K #.<.>.u.q.e.e.e.e.w.u.>.$.+.G -                                             ",
"                                              X t G O.<.1.s.y.r.r.r.r.M.h.1.$.Y S =                                             ",
"                                                ; F @.1.1.s.y.r.r.r.r.M.h.1.<.^ d &                                             ",
"                                                + z  .1.z.p.a.m.m.m.m.s.h.z.1.~ y o                                             ",
"                                                . j | :.>.p.s.s.s.s.s.h.p.:.>.! 2 .                                             ",
"                                                . j ] ] ..:.z.z.z.z.z.z.;.| ;.m 2 .                                             ",
"                                                . j ] ] ..:.z.z.z.z.z.z.;.| ;.m 2 .                                             ",
"                                                . j ]  .;.>.z.z.z.z.z.z.:.o.;.H 2 .                                             ",
"                                                . p [ i.l.f.z.z.z.z.z.z.f.i.d.I < .                                             ",
"                                                  y P { X.o.o.o.o.o.o.o.o.} { v <                                               ",
"                                                  7 u s x B V C C C V V B s s r                                                 ",
"                                                    * $ > 6 8 j n n f 0 , * *                                                   ",
"                                                      : 8 w a 4 T Q c a w 6 $                                                   ",
"                                                    : g A _ ) R E W / ) _ Z 0                                                   ",
"                                                    > 3.8.u.:.=.*.*.-.:.t.5.e >                                                 ",
"                                                    > 3.9.p.2.,.,.,.2.2.a.7.e                                                   ",
"                                                      e ` :.z.z.2.2.z.z.o.A 0                                                   ",
"                                                      % U 0.a.o.| | u.a.6.l                                                     ",
"                                                      . M 4.q.U c b 4.q.U 8                                                     ",
"                                                        w g N w > 5 g N f ,                                                     ",
"                                                          6 9       6 9 6                                                       ",
"                                                                                                                                ",
"                                                                                                                                ",
"                                                                                                                                ",
"                                                                                                                                ",
"                                                                                                                                ",
"                                                                                                                                ",
"                                                                                                                                ",
"                                                                                                                                ",
"                                                                                                                                ",
"                                                                                                                                ",
"                                                                                                                                ",
"                                                                                                                                ",
"                                                                                                                                ",
"                                                                                                                                ",
"                                                                                                                                ",
"                                                                                                                                ",
"                                                                                                                                ",
"                                                                                                                                ",
"                                                                                                                                ",
"                                                                                                                                ",
"                                                                                                                                ",
"                                                                                                                                "
};
