/* XPM */
static char *ff46e6d590e24cef9ffddbb585e6e7659kFo90w9Wu40qvLq[] = {
/* columns rows colors chars-per-pixel */
"64 64 157 2 ",
"   c None",
".  c #E0D77B",
"X  c #E3DA7A",
"o  c #EAE178",
"O  c #5C4E92",
"+  c #5D5092",
"@  c #5D5093",
"#  c #635793",
"$  c #615496",
"%  c #645795",
"&  c #6A5D91",
"*  c #685C94",
"=  c #695E94",
"-  c #65599A",
";  c #7F758F",
":  c #6A6095",
">  c #6B6095",
",  c #6D6395",
"<  c #706596",
"1  c #766D97",
"2  c #786F98",
"3  c #797198",
"4  c #6E64A2",
"5  c #6F65A3",
"6  c #736AA7",
"7  c #7E75A5",
"8  c #81799B",
"9  c #827A9A",
"0  c #817A9F",
"q  c #887FAF",
"w  c #8B818D",
"e  c #9A918B",
"r  c #9E958A",
"t  c #8B8199",
"y  c #89829C",
"u  c #8A839C",
"i  c #8D869D",
"p  c #948A95",
"a  c #918A9E",
"s  c #918B9E",
"d  c #938D9E",
"f  c #948E9F",
"g  c #95909F",
"h  c #97919F",
"j  c #8A80A8",
"k  c #9087A3",
"l  c #948CAC",
"z  c #968DAE",
"x  c #9892A0",
"c  c #9993A0",
"v  c #9A94A0",
"b  c #9A95A0",
"n  c #9C97A1",
"m  c #9B95A5",
"M  c #9B96A5",
"N  c #9C97A6",
"B  c #9E99A1",
"V  c #9E99A2",
"C  c #9D94B4",
"Z  c #A19DAD",
"A  c #A29DAF",
"S  c #A393B2",
"D  c #A39AB1",
"F  c #A39FB0",
"G  c #A299B7",
"H  c #A59CB8",
"J  c #A098BC",
"K  c #A5A0A4",
"L  c #A6A1A4",
"P  c #A7A3A4",
"I  c #A9A5A5",
"U  c #AEAAA7",
"Y  c #AFABA7",
"T  c #A7A3AF",
"R  c #B1ADA7",
"E  c #B3AFA8",
"W  c #B7B3A9",
"Q  c #A8A0B7",
"!  c #ADA9B2",
"~  c #A8A2B8",
"^  c #AAA1BB",
"/  c #B0A7BF",
"(  c #BBB7B1",
")  c #C4BB82",
"_  c #E8B5AC",
"`  c #E9BCAE",
"'  c #CEC585",
"]  c #CAC18B",
"[  c #C3C0AE",
"{  c #C5C2AE",
"}  c #CDC2AE",
"|  c #C8C6AF",
" . c #CAC7B0",
".. c #CBC7B7",
"X. c #CCC9B1",
"o. c #CDCBB1",
"O. c #CECBB1",
"+. c #D2CFB3",
"@. c #D6D4B4",
"#. c #D6D4B5",
"$. c #D7D5B5",
"%. c #DCDAB7",
"&. c #DEDCB8",
"*. c #DFDDB8",
"=. c #EBC5B1",
"-. c #EBCAB2",
";. c #E9D5B6",
":. c #EED6B6",
">. c #EED9B7",
",. c #E0DEB8",
"<. c #E6DBBF",
"1. c #EFDDB9",
"2. c #EFDEB9",
"3. c #E2E0B9",
"4. c #E3E1B9",
"5. c #E3E1BB",
"6. c #E3E2BA",
"7. c #E4E2BA",
"8. c #E5E3BB",
"9. c #E5E4BB",
"0. c #E6E4BB",
"q. c #E6E4BC",
"w. c #E6E4BD",
"e. c #E9E7BC",
"r. c #E9E8BC",
"t. c #EAE9BC",
"y. c #ECEBBD",
"u. c #ECEBBE",
"i. c #F0E3BB",
"p. c #F1E6BC",
"a. c #F1E9BD",
"s. c #F1EABD",
"d. c #F2EDBE",
"f. c #F0EEBF",
"g. c #F0EFBF",
"h. c #F1EFBF",
"j. c #F2EFBF",
"k. c #F1F0BF",
"l. c #F2F1BF",
"z. c #BDB6C2",
"x. c #DDDAC1",
"c. c #D1CAD1",
"v. c #D2CAD6",
"b. c #D5CDD9",
"n. c #DAD2DC",
"m. c #E6CDC1",
"M. c #E2DECD",
"N. c #E0D9DB",
"B. c #E3E1C1",
"V. c #E4E0CC",
"C. c #EDEAC9",
"Z. c #F3E4C3",
"A. c #F3E5C3",
"S. c #F3ECC1",
"D. c #F2F1C0",
"F. c #F3F2C0",
"G. c #E8E4D0",
/* pixels */
"                                                                                                                                ",
"                                                                                                                                ",
"                                                                                                                                ",
"                                                                                                                                ",
"                                                                                                                                ",
"                                                                                                                                ",
"                                                                                                                                ",
"                                                                                                                                ",
"                                                                                                                                ",
"                                                                                                                                ",
"                                                                                                                                ",
"                                                                                                                                ",
"                                                                                                                                ",
"                                                                                                                                ",
"                                                                                                                                ",
"                                                                                                                                ",
"                                                                O O O O O                                                       ",
"                                                              i b b b b x y                                                     ",
"                                                            O Y 4.0.0.0.*.P O                                                   ",
"                                                          O O E f.p.>.>.;.} R s                                                 ",
"                                                        : : : W f.:._ _ ` 2.4.V O                                               ",
"                                                      h { o.o.*.F.:._ _ ` 2.4.V O                                               ",
"                                                    O V 4.F.F.F.F.2.=.=.-.i.4.V O                                               ",
"                                                    O V 4.F.F.F.F.f.s.s.s.f.4.V O                                               ",
"                                                    O V 4.F.F.F.F.F.F.F.F.F.4.V O                                               ",
"                                                    O V 4.F.F.F.F.F.F.F.F.F.4.V O                                               ",
"                                                  O O V 4.F.F.F.F.F.F.F.F.F.4.V O O                                             ",
"                                                O = 9 E 0.y.4.e.F.F.F.F.F.F.4.V O O O                                           ",
"                                                O y | 7.f.@.V [ f.F.F.F.F.F.4.V O                                               ",
"                                                O d %.F.F.%.E o.k.F.F.F.F.F.4.V O O                                             ",
"                                                O d %.F.F.k.f.k.F.F.F.F.F.F.4.V O O O                                           ",
"                                                O d %.F.F.F.F.S.A.A.A.S.F.F.4.V O O                                             ",
"                                                O s +.7.q.q.q.<.m.m.m.<.q.0.@.n O                                               ",
"                                                    f M Z F F D S S S D Z N h                                                   ",
"                                                    r p 7 6 5 q J ~ ! ! T 0 O                                                   ",
"                                                    X ] k 5 $ G b.M.y.y.4.P O                                                   ",
"                                                    o ' t - @ H n.G.F.F.r.I O                                                   ",
"                                                    . ) ; = 1 Q v.V.F.F.r.E 2                                                   ",
"                                                    e w & h o.( z ..F.F.f.,. .x O                                               ",
"                                                    O O O x o.Y # P @.B.C.C.x.M O                                               ",
"                                                    O O O = 3 < @ , 9 z.N.N.c.z O                                               ",
"                                                      O O O O O O O % C / / ~ j                                                 ",
"                                                        O O O O       O O O O                                                   ",
"                                                                                                                                ",
"                                                                                                                                ",
"                                                                                                                                ",
"                                                                                                                                ",
"                                                                                                                                ",
"                                                                                                                                ",
"                                                                                                                                ",
"                                                                                                                                ",
"                                                                                                                                ",
"                                                                                                                                ",
"                                                                                                                                ",
"                                                                                                                                ",
"                                                                                                                                ",
"                                                                                                                                ",
"                                                                                                                                ",
"                                                                                                                                ",
"                                                                                                                                ",
"                                                                                                                                ",
"                                                                                                                                ",
"                                                                                                                                ",
"                                                                                                                                "
};
