/* XPM */
static char *_433ac3df3d64265c72418a2f31cc597oah5UY6W6noarCy7[] = {
/* columns rows colors chars-per-pixel */
"64 64 108 2 ",
"   c None",
".  c #5C4E92",
"X  c #605393",
"o  c #625593",
"O  c #655996",
"+  c #695E94",
"@  c #6A5E94",
"#  c #635799",
"$  c #685C9C",
"%  c #786F97",
"&  c #70669B",
"*  c #7A7298",
"=  c #7A719B",
"-  c #6E64A2",
";  c #756CA0",
":  c #7168A6",
">  c #776EA6",
",  c #756CA9",
"<  c #766DAA",
"1  c #7B71A0",
"2  c #7D75A3",
"3  c #7F74A2",
"4  c #7F75A3",
"5  c #7E76AA",
"6  c #7F78AB",
"7  c #807899",
"8  c #827A9A",
"9  c #857D9B",
"0  c #877F9B",
"q  c #857EA1",
"w  c #8379A5",
"e  c #877DA7",
"r  c #837CA9",
"t  c #87809B",
"y  c #928C9E",
"u  c #938D9E",
"i  c #8E86A2",
"p  c #8E86A3",
"a  c #8B82A9",
"s  c #958FA3",
"d  c #968CAF",
"f  c #968DAF",
"g  c #9892A0",
"h  c #9C97A1",
"j  c #9E99A3",
"k  c #9791AD",
"l  c #9E99AE",
"z  c #9D94B3",
"x  c #A29DA5",
"c  c #A49CB1",
"v  c #A7A3A4",
"b  c #AAA5A5",
"n  c #ACA7A6",
"m  c #AFABA7",
"M  c #A5A1AD",
"N  c #B1ADA7",
"B  c #B5B1A9",
"V  c #BAB6AE",
"C  c #BCB8AB",
"Z  c #BDBAAC",
"A  c #BFBCAC",
"S  c #B0A9B9",
"D  c #BEB9B5",
"F  c #B9B3B9",
"G  c #C3C0AD",
"H  c #C3C0AE",
"J  c #C4C1B3",
"K  c #CBC8B0",
"L  c #CECBB1",
"P  c #CECCB8",
"I  c #D1CEB2",
"U  c #D2D0B3",
"Y  c #D3D1B5",
"T  c #D4D2B6",
"R  c #D5D3B6",
"E  c #DAD8B6",
"W  c #D5D3B9",
"Q  c #DEDCB8",
"!  c #E0DEB8",
"~  c #E2E0BA",
"^  c #E6E4BB",
"/  c #E6E5BB",
"(  c #E7E5BB",
")  c #E5E3BD",
"_  c #E7E5BD",
"`  c #EAE8BC",
"'  c #EAE8BF",
"]  c #EDECBF",
"[  c #B7AEC4",
"{  c #B9B1C1",
"}  c #C7BECE",
"|  c #C8C0CF",
" . c #CEC7CE",
".. c #DDD9C7",
"X. c #D2C9D6",
"o. c #D9D1DB",
"O. c #DCD5D8",
"+. c #E3DED2",
"@. c #E2DCD8",
"#. c #ECEAC3",
"$. c #EEECC6",
"%. c #EAE7CD",
"&. c #EAE6CE",
"*. c #EDEBC8",
"=. c #EBE8CC",
"-. c #F0EEC4",
";. c #F3F2C0",
":. c #F1F0C3",
/* pixels */
"                                                                                                                                ",
"                                                                                                                                ",
"                                                                                                                                ",
"                                                                                                                                ",
"                                                                                                                                ",
"                                                                                                                                ",
"                                                                                                                                ",
"                                                                                                                                ",
"                                                                                                                                ",
"                                                                                                                                ",
"                                                                                                                                ",
"                                                                                                                                ",
"                                                                                                                                ",
"                                                                                                                                ",
"                                                                                                                                ",
"                                                                                                                                ",
"                                                                                                                                ",
"                                                                                                                                ",
"                                                                                                                                ",
"                                                                                                                                ",
"                                                                                                                                ",
"                                                  . . . .             . . . .                                                   ",
"                                                7 n m m m u           b m m m g                                                 ",
"                                                t / ;.;.;.v .       = ! ;.;.;.N .                                               ",
"                                                t / ;.;.;.v . . . . = ! ;.;.;.N .                                               ",
"                                                t / ;.;.;.D d d d d c ) ;.;.;.N .                                               ",
"                                                t / ;.;.;.+.o.o.o.o.O.$.;.;.;.N .                                               ",
"                                                t / ;.;.;.*.%.%.%.%.=.;.;.;.;.N .                                               ",
"                                                t / ;.;.;.;.;.;.;.;.;.;.;.;.;.N .                                               ",
"                                                t / ;.;.;.;.;.;.;.;.;.;.;.;.;.N .                                               ",
"                                              . t / ;.;.;.;.;.;.;.;.;.;.;.;.;.N . .                                             ",
"                                            . . t / ;.;.;.;.;.;.;.;.;.;.;.;.;.N . .                                             ",
"                                              . t / ;.;.;.;.;.;.;.;.;.;.;.;.;.N .                                               ",
"                                              . t / ;.;.;.;.;.;.;.;.;.;.;.;.;.N .                                               ",
"                                            . . t / ;.;.;.;.;.;.;.;.;.;.;.;.;.N . .                                             ",
"                                              . t / ;.;.;.;.;.;.;.;.;.;.;.;.;.N .                                               ",
"                                                0 K U Y W W W W W W W W T U U h .                                               ",
"                                                  + + & 5 6 6 6 6 6 6 6 ; + + o .                                               ",
"                                                  . . # , , : $ $ - , , M J { a .                                               ",
"                                                  e i s l r 3 u u q > k P #. .z .                                               ",
"                                                3 | ../ _ x j / / Z = T ] ~ i                                                   ",
"                                                3 X.%./ A C I ;.;.Q G ` E B %                                                   ",
"                                                1 } ..L + G / / / ` -.-.V .                                                     ",
"                                                O w i 0 X 7 u u u F @.@.S .                                                     ",
"                                                . . . . . . . . . d [ [ z                                                       ",
"                                                                    . .                                                         ",
"                                                                                                                                ",
"                                                                                                                                ",
"                                                                                                                                ",
"                                                                                                                                ",
"                                                                                                                                ",
"                                                                                                                                ",
"                                                                                                                                ",
"                                                                                                                                ",
"                                                                                                                                ",
"                                                                                                                                ",
"                                                                                                                                ",
"                                                                                                                                ",
"                                                                                                                                ",
"                                                                                                                                ",
"                                                                                                                                ",
"                                                                                                                                ",
"                                                                                                                                ",
"                                                                                                                                "
};
