/* XPM */
static char *_66bea90d56149d38d50f0a0cfbf90410kyyTKDEy8Ixn1H2[] = {
/* columns rows colors chars-per-pixel */
"64 64 206 2 ",
"   c None",
".  c #1B1B1E",
"X  c #1E1E22",
"o  c #201F22",
"O  c #1F2024",
"+  c #232325",
"@  c #23252A",
"#  c #25292E",
"$  c #29292D",
"%  c #3E2D2F",
"&  c #2A2E34",
"*  c #272A30",
"=  c #3F2D30",
"-  c #302F33",
";  c #2D323A",
":  c #33353C",
">  c #35343B",
",  c #422F31",
"<  c #453132",
"1  c #4B3535",
"2  c #4E3836",
"3  c #543536",
"4  c #5B3435",
"5  c #503937",
"6  c #553B3A",
"7  c #5A3E3C",
"8  c #553838",
"9  c #552F30",
"0  c #623435",
"q  c #6D3232",
"w  c #6A3739",
"e  c #633C3B",
"r  c #6C3D3B",
"t  c #6D3B37",
"y  c #733332",
"u  c #7B3533",
"i  c #7D3A37",
"p  c #753A3C",
"a  c #7C3D3C",
"s  c #7A363A",
"d  c #662F30",
"f  c #5D413E",
"g  c #61433F",
"h  c #68413D",
"j  c #74433E",
"k  c #7C423D",
"l  c #2F3842",
"z  c #323B44",
"x  c #3B3B44",
"c  c #353F4A",
"v  c #383F4A",
"b  c #543D42",
"n  c #663E42",
"m  c #783F40",
"M  c #37424D",
"N  c #3C4652",
"B  c #3A4956",
"V  c #3D4D5B",
"C  c #374551",
"Z  c #3E505F",
"A  c #3F5363",
"S  c #4C4448",
"D  c #5D4341",
"F  c #5F4B47",
"G  c #5D4949",
"H  c #564A52",
"J  c #444854",
"K  c #644541",
"L  c #6C4441",
"P  c #664842",
"I  c #6C4C45",
"U  c #6E4E49",
"Y  c #634E4C",
"T  c #734543",
"R  c #7F4343",
"E  c #7A4B45",
"W  c #724F4A",
"Q  c #7B4D49",
"!  c #734248",
"~  c #6D524D",
"^  c #6F5047",
"/  c #705047",
"(  c #725247",
")  c #715148",
"_  c #735349",
"`  c #77564A",
"'  c #755549",
"]  c #75544D",
"[  c #79564C",
"{  c #79594B",
"}  c #7A5A4C",
"|  c #7E5C4D",
" . c #7D5B4C",
".. c #675558",
"X. c #7C5B53",
"o. c #735C5C",
"O. c #7A5654",
"+. c #7F4951",
"@. c #7E625C",
"#. c #425464",
"$. c #445A6C",
"%. c #485969",
"&. c #545D6D",
"*. c #545560",
"=. c #4A5F71",
"-. c #535F70",
";. c #635D6A",
":. c #6F5A69",
">. c #695B62",
",. c #4C6173",
"<. c #536171",
"1. c #686166",
"2. c #746565",
"3. c #7A6666",
"4. c #893E3E",
"5. c #823937",
"6. c #8C403F",
"7. c #833E42",
"8. c #844544",
"9. c #8D4241",
"0. c #844846",
"q. c #8A4946",
"w. c #8F4D4E",
"e. c #924343",
"r. c #9C4542",
"t. c #9E4944",
"y. c #9C474A",
"u. c #954D49",
"i. c #9C4A4A",
"p. c #8A554E",
"a. c #805F4E",
"s. c #80514D",
"d. c #9D524B",
"f. c #90564E",
"g. c #825C54",
"h. c #8A505A",
"j. c #875553",
"k. c #915D55",
"l. c #9C5A52",
"z. c #874E57",
"x. c #A14944",
"c. c #AB4C46",
"v. c #AA4D47",
"b. c #B04E47",
"n. c #A3544C",
"m. c #AE5249",
"M. c #AE594F",
"N. c #B35249",
"B. c #B4594F",
"V. c #B25047",
"C. c #A65D53",
"Z. c #B75D52",
"A. c #856156",
"S. c #84635A",
"D. c #8C6459",
"F. c #8E6A5E",
"G. c #896357",
"H. c #93645A",
"J. c #936B5E",
"K. c #9A645A",
"L. c #A9665B",
"P. c #B56A5D",
"I. c #BA695C",
"U. c #866B64",
"Y. c #946D61",
"T. c #8E746D",
"R. c #9C7264",
"E. c #92746B",
"W. c #9E7769",
"Q. c #957064",
"!. c #967970",
"~. c #9D7D73",
"^. c #AA6E60",
"/. c #BA6F60",
"(. c #A17666",
"). c #A37668",
"_. c #A47A6A",
"`. c #AB7D6D",
"'. c #AA7063",
"]. c #B47C6C",
"[. c #B87C6D",
"{. c #B97364",
"}. c #A97E70",
"|. c #C47867",
" X c #AD8677",
".X c #B48572",
"XX c #BA8774",
"oX c #BC8A76",
"OX c #BC8C7A",
"+X c #B58978",
"@X c #BF917E",
"#X c #AF816E",
"$X c #C18E79",
"%X c #CB8C76",
"&X c #C5927D",
"*X c #C9947D",
"=X c #C69581",
"-X c #C99681",
";X c #CE9982",
":X c #D49D85",
">X c #DA9F86",
",X c #D9A087",
"<X c #DDA389",
"1X c #D7A088",
"2X c #E1A68C",
"3X c #E2A88D",
/* pixels */
"                                                                                                                                ",
"                                                                                                                                ",
"                                                                                                                                ",
"                                                        8 8 6 6 6 6 6 6                                                         ",
"                                                    6 6 6 6 6 6 6 6 6 6 6 6                                                     ",
"                                                    g g g f f f f f 7 7 7 6                                                     ",
"                                            5 5 6 g I I I I P P P K K g f 6 2 < % %                                             ",
"                                        6 6 6 6 7 P ( { ` _ I I I I I K g 7 2 < , , , ,                                         ",
"                                        g g g g K I ` } { _ I I I I I K f 7 2 < < 1 1 <                                         ",
"                                    6 g I ^ ( ( ( ` ` ` _ I K K K K K f 7 6 8 2 2 8 8 5 1 ,                                     ",
"                                  6 7 P ( {  .| } { ` _ I K f 7 7 7 7 7 6 6 6 6 7 7 f 6 2 < ,                                   ",
"                                  g K I ` | a.a.| } ` _ I K f 7 6 6 6 6 6 6 7 f g K K f 6 2 1                                   ",
"                              7 g I ( ` | a.a.| } ` ` _ I I P g 7 6 8 8 6 7 K P I I I K f 6 5 1 <                               ",
"                            8 7 K ( { | a.a.| { ` _ _ _ ( I I P f 7 6 6 7 f P I I I I I K f 6 2 < %                             ",
"                            8 7 K ( | a.a.| } ` _ ( I I I I I P g 7 7 7 f K I I I _ ( I I K 7 2 < %                             ",
"                            8 7 K _ | a.| { ` ` _ I I I I I I K K f g K P P I I I I _ ( I I f 5 < %                             ",
"                            8 7 K (  .| } ` _ _ ( I I P K K K K K K K I I I I P I I ( _ ( I K 8 < ,                             ",
"                            6 7 K ( { } ` _ _ I I I I P K K K K K K I I I I I K K I I ( _ I P 7 2 1                             ",
"                            6 7 g I ` ` ` _ I I I I I I I K K K K K I I I I I K K K I I I I I g 6 5 1 <                         ",
"                            8 6 f I ( _ _ ( I I K I I I I I K K K K I I ( I I K K K K I I I I K f 6 2 < %                       ",
"                            2 8 f P I _ ( I I K K P I _ _ I I K g g P I _ _ I I K K K P I I I I K 7 2 < %                       ",
"                            1 2 6 K I I I I K g f P ( { ` _ I K f 7 K ( ` ` _ I K g f K I ( _ I I f 5 < %                       ",
"                            , < 6 K I I I K g 7 7 P ( { { ` I I P P I ` } { ` I P f 7 g I I ( I I g 8 < %                       ",
"                            < < 8 g I I I K f 7 7 g I ( ( I I ] g.G.A.| ` ( I I K 7 7 f K P I I P f 8 <                         ",
"                        , < < 2 6 f K I K K f 7 7 7 g P K g I A.(.`.(.G.^ g f f 7 6 6 7 7 f f f 6 6 2                           ",
"                      = , < 2 6 7 f K K K K f 7 7 f K P K f I J.XX&XoXR.] P K K K f 7 7 D D 7 8 1 1                             ",
"                      % , 1 8 f f f f g K g f 6 7 I X.A.X.~ ~ Y.OX:X*X#XJ.D.D.D.X.~ G Y ] ] U f 2 <                             ",
"                      % < 2 f K K g f f g g 7 6 f X.R.`.W.S.o.E.OX:X:X*XoXXXXX.XW.@...o.U.Y.S.U 6 < , ,                         ",
"                      % < 5 f I P K 7 7 f g g g W J.XX&X+XE.2.E.OX:X<X,X:X:X:X;X+XT.1.3.E._.Y.[ f < < , =                       ",
"                      % < 2 f P P K 7 7 7 K I X.J.`.*X:X@X!.2.T.OX:X<X2X<X<X2X:XOXT.1.2.E._.Y.[ f 1 < , =                       ",
"                      % < 1 6 f K f f 7 7 K X.R.XX*X:X:X@X!.2.T.OX:X2X2X<X3X2X1XOXT.1.>.U.Y.S.~ 7 1 < , =                       ",
"                      = , 1 5 7 7 g g 7 7 I D..X*X,X<X1X&X~.3.!.OX:X<X<X<X<X<X:X@X!.2.o.o.X.] I 7 5 1 , ,                       ",
"                        , 1 3 4 e r r r h _ Y.oX:X3X3X,X-X X~. X=X,X<X<X<X2X<X,X-X XE.U.@.X.W L w 0 4 9 9                       ",
"                          4 0 q y u i a T [ R.$X,X3X3X<X:X=X&X=X:X<X<X<X<X<X<X<X:X-XOX}.Y.X.Q k i y q d d                       ",
"                            q y u u 5.a E X.R.oX:X,X,X,X:X:X:X:X,X,X<X<X<X,X,X,X:X:X-X+XR.g.E k 5.u y y q                       ",
"                            t p a i i a T ] F.`.OX&X&X&X-X;X:X:X:X:X:X:X:X;X-X&X&X&X$X#XF.] T a a i a p t 0                     ",
"                        < 8 h j j j j r e K [ F.(._.`.`..XOX&X-X-X-X-X-X&XOX.X`.`.`._.J.X.P e r j j j j h 8 <                   ",
"                      % < 5 g I I L h 7 6 6 K [ A.D.D.H.R.`.XXOXOXOXOXOXXX`.R.F.D.S.A.] K 8 6 7 h L I I g 5 < %                 ",
"                      % < 2 7 g K f 7 6 3 4 r E p.p.p.k.K.'.].[.[.[.[.[.].'.K.p.s.[ W I 7 1 1 8 7 f K K 7 2 < %                 ",
"                      = , < 2 6 6 8 2 3 4 w a q.d.d.n.n.C.L.P.P.P.P.P.P.P.L.l.u.q.R T L e   < 1 2 8 6 6 2 < , =                 ",
"                      , , , < < < 1 1 4 w a 9.t.m.m.m.m.B.B.B.B.B.B.B.B.B.M.v.t.e.8.m p       < < < < < < , , ,                 ",
"                        , = = , , 1 4 w a 9.t.v.N.N.N.N.N.N.N.N.N.N.N.N.N.b.c.x.r.4.a p L     < , % % = = , ,                   ",
"                                3 0 w a 9.t.v.m.N.N.N.N.N.N.N.N.N.N.N.N.N.N.b.v.r.9.a m L P D                                   ",
"                                  p a 9.t.v.N.N.N.N.N.N.N.N.N.N.N.N.N.N.N.N.N.b.x.9.m T W ~ ~                                   ",
"                                  p a 9.x.m.N.N.V.c.v.c.v.c.N.N.N.N.N.N.N.N.N.m.x.9.R Q g.S.S.X.                                ",
"                                  p a 9.x.m.N.N.V.v.x.r.x.v.N.N.N.N.N.N.N.N.N.m.x.9.8.j.Y.W.Q.S.~                               ",
"                                  p a 9.x.m.B.B.B.M.n.d.d.n.m.N.N.N.N.N.N.N.N.m.x.9.0.k.).}.W.S.~ F                             ",
"                                  p a 9.t.m.Z.I.|.{.{.^.L.C.n.n.m.N.N.N.N.N.N.m.x.9.0.H.`..X_.S.~ F                             ",
"                                  p a 9.t.B.I.|.%X%X%X%X[.^.l.d.n.N.N.N.N.N.N.m.x.9.0.H.`..X_.S.~ F                             ",
"                                  p a 6.r.M./.%X:X,X,X:X$X).D.f.n.m.N.N.N.N.N.b.x.9.0.k.).}.W.S.~ F                             ",
"                                    a 4.e.n./.%X>X3X3X,X&X_.D.p.i.v.c.c.c.c.c.c.r.6.8.j.Y.R.Y.S.~                               ",
"                                      5.4.u.L.%X>X3X3X,X&X_.D.p.u.x.c.c.c.c.c.x.r.4.R Q g.S.S.X.                                ",
"                                        s q.L.XX:X,X,X:XOX_.S.j.w.i.y.y.y.y.y.y.e.7.m T U ~ ~                                   ",
"                                          0.K.].oX&X&XOX XE.3.o.O.h.h.h.h.h.h.z.+.! n n K P                                     ",
"                                            H.R.(._._.W.E.3.1.;.;.:.:.:.:.:.:.:...H b b b                                       ",
"                                              X.X.X.S.@.2.1.<.<.-.&.&.&.&.-.-.&.%.J x x                                         ",
"                                              Y Y ....>.;.<.,.=.$.$.#.#.#.$.$.$.A B z l                                         ",
"                                              S S H *.&.<.<.,.$.A V B B B V #.#.V C z l                                         ",
"                                              : x N #.%.=.=.=.#.B c z z c C B V B M z :                                         ",
"                                              & ; z B Z #.#.#.V c ; & & ; z c M c z ; &                                         ",
"                                              @ # ; l M C N N v ; * @ @ # & ; : ; & # @                                         ",
"                                              X + @ * ; : x x : * + X X O @ # $ # @ O X                                         ",
"                                                . + + $ - > > - $ X . . . o + + + o .                                           ",
"                                                                                                                                "
};
