/* XPM */
static char *_5c0242c40774580daff758ec2f44ff8qdqpeOJPo2Xmnm2A[] = {
/* columns rows colors chars-per-pixel */
"64 64 8 1 ",
"  c None",
". c #90625D",
"X c #AA7959",
"o c #78A158",
"O c #B68962",
"+ c #C49A6C",
"@ c #A4C263",
"# c #C0D470",
/* pixels */
"      oooooooooooooooooooooooooooooooooooooooooooooooooooo      ",
"    oooo@@oooo@@@@@@@oooo@@ooo@@@@@@@oooo@@ooo@@@@@@@o@ooooo    ",
"   ooo@@@@@@@@@@@@@@@@@@@@@@@@@@@@@@@@@@@@@@@@@@@@@@@@@@@@ooo   ",
"  ooo@@@@@@##@@@@@@@######@##@@@@@@#######@@@@@@@@@###@@@@@ooo  ",
"  oo@@@@####@@@@############@@@@@@@@############@@@@###@@@@@oo  ",
" oo@@@@####@@@@@###########@@@@@@@@@@###########@@@@@###@@@@@oo ",
" oo@@@@#@##@@@oo###@####@##@@@ooo@@@@####@######o@@@@#####@@@oo ",
" o@@@@#####@@@oo###########@@@oooo@@@###########oo@@@######@@oo ",
" o@@@@######@@oX############@@oXXo@@@###########Xo@@@###@##@@@o ",
" oo@@@######@ooO######@#####@ooOOo@@@###########Oo@@@######@@@o ",
" oo@@@######@ooO############@ooOOo@@############Oo@@#######@@@o ",
" oo@@@######@ooO############@ooOOoo@@###@#######Ooo@@######@@@o ",
" o@@@######@@@oO###########@@@oOOoo@@###########Ooo@@######@@oo ",
" o@@@##@###@@@oO###########@@@oOOo@@@###########Oo@@@######@@oo ",
" o@@@######@@ooO###########@@ooOOo@@@###########Oo@@@######@@oo ",
" o@@@@######@ooO############@ooOOoo@@###########Ooo@@#######@oo ",
" oo@@@######################################################@oo ",
" oo@@@######################################################@oo ",
" oo@@@#####################################################@@oo ",
" oo@@@###@###@@@#############@@@@@@########@####@@@########@@@o ",
" o@@@#######@@@@############@@@@@@@@############@@@@#######@@@o ",
" o@@@######@@@@@#######@###@@@@@@@@@@###########@@@@@######@@@o ",
" o@@@######@@@oo###########@@@ooo@@@@###########o@@@@#######@@o ",
" o@@@######@@@oo###########@@ooooo@@@###########oo@@@#######@@o ",
" o@@##@#####@@oX############@ooXXo@@@###########Xo@@@###@###@oo ",
" oo@########@ooO############@ooOOo@@@#########@#Oo@@@#######@oo ",
" oo@###@####@ooO########@###@ooOOo@@##@#########Oo@@########@oo ",
" oo@@#######@ooO############@ooOOoo@@###########Ooo@@#######@oo ",
" oo@@######@@@oO###########@@@oOOoo@@###@#######Ooo@@######@@@o ",
" o@@@######@@@oO###########@@@oOOo@@@###########Oo@@@######@@@o ",
" oo@@######@@ooO#@#########@@ooOOo@@@###########Oo@@@######@@@o ",
" o@@@#######@ooO############@ooOOoo@@###########Ooo@@######@@@o ",
" oo@@@######@@oo############@@ooooo@@###########ooo@@#######@oo ",
" oo@@@######@@@o############@@@ooo@@@###########oo@@@#######@oo ",
" oo@@@#######@@@#######@#####@@@@@@@#########@##@@@@#######@@oo ",
" oo@@@########@@##############@@@@@#############@@@########@@@o ",
" o@@@###################################@##################@@@o ",
" o@@@######################################################@@@o ",
" o@@@#######@###############################################@@o ",
" o@@@########################@#####@###############@########@@o ",
" o@@##@##################@##################################@oo ",
" oo@###################################@####################@oo ",
" oo@########################################################@oo ",
" oo@@#######################################################@oo ",
" oo@@######################################################@@@o ",
" o@@@######################################################@@@o ",
" oo@@######################################################@@@o ",
" o@@@######################################################@@@o ",
" o@@#######@@@oo#############@@ooooo@@##########ooo@@######@@oo ",
" o@@@@#####@@@@o#############@@@ooo@@@##########oo@@@#####@@@oo ",
" oo@@@@##@@@@@@@####@@@@@@##@@@@@@@@@##@@@######@@@@###@@@@@@oo ",
" ooo@@@@@@@@@@@@@@@@@@@@@@@@@@@@@@@@@@@@@@@@@@@@@@@##@@@@@@@ooo ",
" .ooo@@@@@@@@@@@@@@@@@@@@@@@@@@@@@@@@@@@@@@@@@@@@@@@@@@@@@@ooo. ",
" .Xoooo@@oooooo@@ooooooo@@@ooo@@@ooooooo@@@ooo@@@@@ooooooooooX. ",
" .OXXoooooXXXXoooooXXXXXoooXXXoooooXXXXXoooXXXoooooXXXXooooXXO. ",
" .OOOXXXXXOOOOXXXXXOOOOOXXXOOOXXXXXOOOOOXXXOOOXXXXXOOOOXXXXOOO. ",
" .O++OOOOO+++OOOOOOO++OOOOOO++OOOOOO++OOOOOO++OOOOO+++OOOOOO+O. ",
" .O++++++O+++++++++O+++++++O+++++++O+++++++O++++++O++++++O+++O. ",
" .O++++++O+++++++++O+++++++O+++++++O+++++++O++++++O++++++O+++O. ",
"  O++++++O+++++++++O+++++++O+++++++O+++++++O++++++O++++++O+++O  ",
"  OO+++++O+++++++++O+++++++O+++++++O+++++++O++++++O++++++O++OO  ",
"   OO+++OOO+++OO+++O+++OOOOO+++++++O+++OOOOO++++++OOOOO++O+OO   ",
"    OOOOO#OOOOOOOO#OOOOOOOOOOO#+OO#OOOOOOOOOOO#+++OOOO#OOOOO    ",
"                                                                "
};
