/* XPM */
static char *b7356d08d07244de8c6263b6b30952063gDNszN7j9EaSdc2[] = {
/* columns rows colors chars-per-pixel */
"64 64 11 1 ",
"  c #ABDDBF",
". c #ADDEBF",
"X c #B0DFBE",
"o c #B1E0BE",
"O c #9BD4C3",
"+ c #9CD4C3",
"@ c #A1D7C2",
"# c #A3D8C1",
"$ c #A4D9C1",
"% c #A9DBC0",
"& c #AADCC0",
/* pixels */
"OOOOOOOOOOOOOOOOOOOOO++$&.oooooooo.&$++OOOOOOOOOOOOOOOOOOOOOOOOO",
"OOOOOOOOOOOOOOOOOOOOO++#%.XooooooX.%#++OOOOOOOOOOOOOOOOOOOOOOOOO",
"OOOOOOOOOOOOOOOOOOOOO++#$ ........ $#++OOOOOOOOOOOOOOOOOOOOOOOOO",
"OOOOOOOOOOOOOOOOOOOOOO+@$$%&&&&&&%$$@+OOOOOOOOOOOOOOOOOOOOOOOOOO",
"OOOOOOOOOOOOOOOOOOOOOO++@##$$$$$$##@++OOOOOOOOOOOOOOOOOOOOOOOOOO",
"+++++++OOOOOOOOOOOOOOO++++++++++++++++OOOOOOOOOOOOOOOOOOOOOOOOOO",
"+@++++++++OOOOOOOOOOOOOOO++++++++++OOOOOOOOOOOOOOOOOOOOOOOOOOO++",
"$$$$$$#@++OOOOOOOOOOOOOOOO+OOOOOOOOOOOOOOOOOOOOOOOOOOOOOOOOOOO++",
"&&&&&&$$@+OOOOOOOOOOOOOOOOOOOOOOOOOOOOOOOOOOOOOOOOOOOOOOOOOOOO+@",
"......&$#++OOOOOOOOOOOOOOOOOOOOOOOOOOOOOOOOOOOOOOOOOOOOOOOOOO++#",
"......&$#++OOOOOOOOOOOOOOOOOOOOOOOOOOOOOOOOOOOOOOOOOOOOOOOOOO++#",
"&&&&&&$$@+OOOOOOOOOOOOOOOOOOOOOOOOOOOOOOOOOOOOOOOOOOOOOOOOOOOO+@",
"$$$$$$#@++OOOOOOOOOOOOOOOOOOOOOOOOOOOOOOOOOOOOOOOOOOOOOOOOOOOO++",
"++++++++++OOOOOOOOOOOOOOOOOOOOOOOOOOOOOOOOOOOOOOOOOOOOOOOOOOOO++",
"+++++++OOOOOOOOOOOOOOOOOOOOOOOOOOOOOOOOOOOOOOOOOOOOOOOOOOOOOOOOO",
"OOOOOOOOOOOOOOOOOOOOOOOOOOOOOOOOOOOOOOOOOOOOOOOOOOOOOOOOOOOOOOOO",
"OOOOOOOOOOOOOOOOOOOOOOOOOOOOOOOOOOOOO+OOOO+OO+OOOOOOOOOOOOOOOOOO",
"OOOOOOOOOOOOOOOOOOOOOOOOOOOOOOOOO++++++++++++++OOOOOOOOOOOOOOOOO",
"OOOOOOOOOOOOOOOOOOOOOOOOOOOOOO++++++++++++++++++++OOOOOOOOOOOOOO",
"OOOOOOOOOOOOOOOOOOOOOOOOOOOOOO++@#$$$$$$$$$$$$#@++OOOOOOOOOOOOOO",
"OOOOOOOOOOOOOOOOOOOOOOOOOOOOOO+@$$&&&&&&&&&&&&$$@+OOOOOOOOOOOOOO",
"OOOOOOOOOOOOOOOOOOOOOOOOOOOOO++#$&............&$#++OOOOOOOOOOOOO",
"OOOOOOOOOOOOOOOOOOOOOOOOOOOOO++#$&............&$#++OOOOOOOOOOOOO",
"OOOOOOOOOOOOOOOOOOOOOOOOOOOOOO+@$$&&&&&&&&&&&&$$@+OOOOOOOOOOOOOO",
"OOOOOOOOOOOOOOOOOOOOOOOOOOOOOO++@#$$$$$$$$$$$$#@++OOOOOOOOOOOOOO",
"OOOOOOOOOOOOOOOOOOOOOOOOOOOOOO++++++++@+++++++++++OOOOOOOOOOOOOO",
"OOOOOOOOOOO+OOOOOOOOOOOOOOOOOOOOO++++++++++++++OOOOOOOOOOOOOOOOO",
"OOOOOOOOOOOOOOOOOOOOOOOOOOOOOOOOOOOOOOOOOOOOOOOOOOOOOOOOOOOOOOOO",
"OOOOOOOOOOOOOOOOOOOOOOOOOOOOOOOOOOOOOOOOOO+OOOOOOOOOOOOOOOOOOOOO",
"OOOOOOOOO++++++++++++++OOOOOOOOOOOOOOOOOOO+OOOOOOOOOOOOOOOOOOOOO",
"OOOOOO+++++++@++++++++++++OOOOOOOOOOOOOOOOOOOOOOOOOOOOOOOOOOOOOO",
"OOOOOO++@#$$$$$$$$$$$$#@++OOOOOOOOOOOOOOOOOOOOOOOOOOOOOOOOOOOOOO",
"OOOOOO+@$$&&&&&&&&&&&&$$@+OOOOOOOOOOOOOOOOOOOOOOOOOOOOOOOOOOOOOO",
"OOOOO++#$&............&$#++OOOOOOOOOOOOOOOOOOOOOOOOOOOOOOOOOOOOO",
"OOOOO++#$&............&$#+++OOOOOOOOOOOOOOOOOOOOOOOOOOOOOOOOOOOO",
"OOOOOO+@$$&&&&&&&&&&&&$$@++OOOOOOOOOOOOOOOOOOOOOOOOOOOOOOOOOOOOO",
"OOOOOO++@#$$$$$$$$$$$$#@++OOOOOOOOOOOOOOOOOOOOOOOOOOOOOOOOOOOOOO",
"OOOOOO++++++++++++++++++++OOOOOOOOOOOOOOOOOOOOOOOOOOO++++++OOOOO",
"OOOOOOOOO++++++++++++++OOOOOOOOOOOOOOOOOOOOOOOOOOO+++++@++++++OO",
"OOOOOOOOOO+OOOOOOOOOOOOOOOOOOOOOOOOOOOOOOOOOOOOOOO++@#$$$$#@++OO",
"OOOOOOOOOOOOOOOOOOOOOOOOOOOOOOOOOOOOOOOOOOOOOOOOOO+@$$&&&&$$@+OO",
"OOOOOOOOOOOOOOOOOOOOOOOOOOOOOOOOOOOOOOOOOOOOOOOOO++#$&....&$#++O",
"OOOOOOOOOOOOOOOOOOOOOOOOOOOOOOOOOOOOOOOOOOOOOOOOO++#$&....&$#++O",
"OOOOOOOOOOOOOOOOOOOOOOOOOOOOOO+OOOOOOOOOOOOOOOOOOO+@$$&&&&$$@+OO",
"OOOOOOOOOOOOOOOOOOOOOOOOOOOOOOOOOOOOOOOOOOOOOOOOOO++@#$$$$#@++OO",
"OOOOOOOOOOOOOOOOOOOOO++++++++++++++OOOOOOOOOOOOOOO++++++@+++++OO",
"OOOOOOOOOOOOOOOOOO++++++++++++++++++++OOOOOOOOOOOOOOO++++++OOOOO",
"OOOOOOOOOOOOOOOOOO++@#$$$$$$$$$$$$#@++OOOOOOOOOOOOOOOOOOOOOOOOOO",
"OOOOOOOOOO+OOOOOOO+@$$&&&&&&&&&&&&$$@+OOOOOOOOOOOOOOOOOOOOOOOOOO",
"O++++++++++OOOOOO++#$&............&$#++OOOOOOOOOOOOOOOOOOOOOOOOO",
"++++++++++++++OOO++#$&............&$#+++OOOOOOOOOOOOOOOOOOOOOO++",
"@#$$$$$$$$#@++OOOO+@$$&&&&&&&&&&&&$$@++OOOOOOOOOOOOOOOOOOOOOOO++",
"$$&&&&&&&&$$@+OOOO++@#$$$$$$$$$$$$#@++OOOOOOOOOOOOOOOOOOOOOOOO+@",
"$&........&$#++OOO++++++++++++++++++++OOOOOOOOOOOOOOOOOOOOOOO++#",
"$&........&$#++OOOOOO++++++++++++++OOOOOOOOOOOOOOOOOOOOOOOOOO++#",
"$$&&&&&&&&$$@+OOOOOOO+OOOOOOOOOOOOOOOOOOOOOOOOOOOOOOOOOOOOOOOO+@",
"@#$$$$$$$$#@++OOOOOOOOOOOOOOOOOOOOOOOOOOOOOOOOOOOOOOOOOOOOOOOO++",
"++++++++++++++OOOOOOOOOOOOOOOOOOOOOOOOOOOOOOOOOOOOOOOOOOOOOOOO++",
"O++++++++++OOOOOOOOOOOOOOOOOOOOOOOOOOOOOOOOOOOOOOOOOOOOOOOOOOOOO",
"OO+OOOOOO+OOOOOOOOOOOOOOOOOOOOOOOOOOOOOOOOOOOOOOOOOOOOOOOOOOOOOO",
"OOOOOOOOO+OOOOOOOOOOOOOOOOOOOOOOOOOOOOOOOOOOOOOOOOOOOOOOOOOOOOOO",
"OOOOOOOOOOOOOOOOOOOOOOOOOOOOOOOOOOOOOOOOOOOOOOOOOOOOOOOOOOOOOOOO",
"OOOOOOOOOOOOOOOOOOOOOOOOOOOOOOOOOOOOOOOOOOOOOOOOOOOOOOOOOOOOOOOO",
"OOOOOOOOOOOOOOOOOOOOOOOOOOOOOOOOOOOOOOOOOOOOOOOOOOOOOOOOOOOOOOOO"
};
